<?xml version="1.0" encoding="UTF-8" standalone="no"?>
<!-- Created with Inkscape (http://www.inkscape.org/) -->

<svg
   width="512"
   height="512"
   viewBox="0 0 512 512"
   version="1.1"
   id="svg1"
   xmlns="http://www.w3.org/2000/svg"
   xmlns:svg="http://www.w3.org/2000/svg">
  <defs
     id="defs1" />
  <path
     id="path1"
     d="m 433.39414,140.81705 c -5.17131,0 -8.1815,4.34063 -8.1815,9.16597 0,2.2848 0.35934,4.5763 0.35934,6.86779 0,7.83553 -4.93564,6.75078 -4.93564,11.6998 0,3.25255 2.76784,6.15076 6.01871,6.15076 0.6017,0 1.20174,-0.006 1.80846,-0.24736 10.94935,-3.37624 23.10711,-33.63696 4.93063,-33.63696 z"
     style="fill:#e63245;fill-opacity:1;fill-rule:nonzero;stroke:none;stroke-width:1.6714" />
  <path
     id="path2"
     d="m 188.37678,177.22853 c -3.25087,0 -4.81197,1.68978 -5.77803,4.46599 -1.5611,4.45929 -1.92546,19.28629 -1.92546,24.47599 0,6.26775 -2.76952,26.76916 6.61875,26.76916 5.295,0 7.58816,-4.09995 7.58816,-8.92528 0,-6.39144 -0.36604,-11.69312 0.24068,-16.64214 1.68477,-12.6592 9.14757,-23.38624 9.50693,-1.44242 0.35768,12.17615 0.48303,26.40144 8.42219,26.40144 3.73391,0 7.94584,-1.56609 8.42888,-5.30001 1.44241,-10.97609 3.00852,-47.99427 -17.57646,-47.99427 -4.21193,0 -6.13739,1.93213 -9.62393,3.74059 -0.96607,-2.77453 -2.53217,-5.54905 -5.90171,-5.54905 z"
     style="fill:#e63245;fill-opacity:1;fill-rule:nonzero;stroke:none;stroke-width:1.6714" />
  <path
     id="path3"
     d="m 390.1199,170.15014 c -10.08691,-0.22062 -19.14256,6.78422 -25.04428,16.27109 -10.44625,16.7792 -6.03376,32.47366 9.88467,41.99395 4.43924,2.67592 9.22446,4.30219 13.96456,4.80529 -0.55491,0.42453 -1.058,0.91425 -1.46248,1.49423 -0.39111,0.70532 -0.234,1.62627 0.21561,2.26642 0.32091,0.45629 0.89419,0.6719 1.43573,0.56159 1.25355,-0.12535 2.4369,-0.63347 3.50661,-1.28698 0.97275,-0.39111 1.98562,0.11695 2.87313,0.50309 0.64014,0.30085 1.34548,0.46966 2.04913,0.38442 0.85577,-0.0184 1.86863,-0.19555 2.33161,-1.00451 0.41786,-0.81731 -0.006,-1.75665 -0.46298,-2.45529 -0.24904,-0.37941 -0.53651,-0.75046 -0.85576,-1.07638 6.15076,-1.50928 11.67307,-5.24988 15.53234,-11.43907 9.74093,-15.65601 3.53166,-37.58145 -11.78505,-47.1519 -4.13839,-2.58565 -8.24001,-3.78071 -12.18284,-3.86595 z"
     style="fill:#4394d1;fill-opacity:1;fill-rule:nonzero;stroke:none;stroke-width:1.6714" />
  <path
     id="path4"
     d="m 239.88935,171.68449 c -9.62893,0 -12.27309,15.67608 -12.27309,23.26925 0,14.46764 6.73741,35.56909 23.82917,35.56909 8.78823,0 12.76449,-5.78473 18.05949,-11.93381 3.12718,6.0254 7.4628,14.2253 15.28496,14.2253 3.36786,0 6.37806,-3.00852 6.37806,-6.38476 0,-2.89821 -4.56962,-8.80661 -5.65435,-13.39126 -0.96607,-4.09327 -1.44911,-8.3169 -1.44911,-12.53551 0,-5.54905 1.20843,-10.97442 1.20843,-16.52348 0,-6.38641 -2.8932,-12.05246 -9.87297,-12.05246 -4.93564,0 -7.70348,3.49322 -9.0289,7.95921 -0.95939,3.13387 -2.04413,13.74226 -3.61023,17.47784 -5.77804,13.62526 -16.96974,19.89969 -14.92561,-6.38643 0.24235,-3.25756 0.6017,-6.39144 0.6017,-9.64899 0,-5.18469 -3.36954,-9.64399 -8.54755,-9.64399 z"
     style="fill:#e63245;fill-opacity:1;fill-rule:nonzero;stroke:none;stroke-width:1.6714" />
  <path
     id="path5"
     d="m 149.0203,171.68449 c -18.41717,0 -28.52414,25.80309 -28.52414,41.2368 0,8.31857 4.21027,18.4506 13.71719,18.4506 8.30352,0 15.40698,-9.64899 19.61891,-16.15911 2.65084,7.23383 7.58649,19.77602 16.49172,19.77602 3.73558,0 6.86276,-3.0152 6.86276,-6.87447 0,-1.20842 -0.48303,-2.40849 -1.08473,-3.49322 -4.33562,-6.39144 -4.6933,-11.34046 -4.6933,-18.93363 0,-8.44225 0.60004,-17.12519 0.60004,-25.68443 0,-3.85926 -2.52716,-7.59317 -6.62043,-7.59317 -2.1678,0 -3.72722,1.5661 -5.77803,1.5661 -3.36954,0 -6.85608,-2.29149 -10.58999,-2.29149 z m 2.76784,18.08623 c -1.20676,7.23383 -3.85091,14.83369 -8.18653,20.1337 -5.53735,7.11682 -7.70515,4.82533 -5.65434,-3.13387 2.1678,-7.95754 6.25438,-16.87614 13.84087,-16.99983 z"
     style="fill:#e63245;fill-opacity:1;fill-rule:nonzero;stroke:none;stroke-width:1.6714" />
  <path
     id="path6"
     d="m 460.71653,171.56081 c -10.83068,0 -22.74609,7.71686 -22.74609,19.53534 0,15.19135 17.3274,15.07436 26.35632,18.20824 6.97977,2.29149 4.69496,3.98294 -0.47635,5.06601 -6.74411,1.44409 -13.48153,2.53385 -19.98494,4.70165 -3.12719,0.96608 -4.93565,3.49324 -4.93565,6.75079 0,8.07621 9.03058,8.07621 14.92561,8.07621 11.19672,0 30.57493,-5.30168 30.57493,-19.40998 0,-10.96941 -11.91541,-16.15911 -21.78671,-19.77602 -5.8967,-2.29149 -7.22212,-5.06099 0.60004,-5.06099 4.33562,0 8.18653,3.01019 12.28145,3.01019 3.36788,0 6.13738,-2.89153 6.13738,-6.14407 0,-9.28965 -13.11715,-14.95737 -20.94599,-14.95737 z"
     style="fill:#e63245;fill-opacity:1;fill-rule:nonzero;stroke:none;stroke-width:1.6714" />
  <path
     id="path7"
     d="m 326.31249,165.29306 c -6.01203,0 -7.33746,5.54904 -9.38826,10.00835 -6.37807,1.08473 -22.26307,2.29149 -22.26307,10.8524 0,5.54236 4.32894,7.95754 9.38158,7.95754 2.76784,0 5.54237,-0.12373 8.31188,-0.24068 l 0.234,0.35935 c 0,10.24904 -1.31874,21.22513 2.65083,31.70982 2.05081,5.43205 5.53736,9.53201 11.55607,9.53201 3.36955,0 6.62042,-2.65753 6.62042,-6.1491 0,-1.9338 -0.35934,-3.85925 -0.71703,-5.66771 -1.80845,-10.00835 -1.92712,-20.61841 -0.84239,-31.71149 2.64417,0.11871 5.16965,0.84238 7.6968,0.84238 6.13739,0 13.96624,-3.74059 13.96624,-10.73374 0,-6.14908 -6.02039,-9.64231 -11.55607,-9.64231 -2.76951,0 -5.53735,0.11696 -8.30519,0.234 -1.44242,-3.73392 -2.52716,-7.35082 -7.34581,-7.35082 z"
     style="fill:#e63245;fill-opacity:1;fill-rule:nonzero;stroke:none;stroke-width:1.6714" />
  <path
     id="path8"
     d="m 83.058453,141.54078 c -28.164779,0 -55.488839,29.53699 -55.488839,59.44671 0,21.58448 13.60688,37.49454 34.308845,37.49454 7.339126,0 42.726021,-7.83385 48.144711,-11.56943 3.25087,-2.1745 4.93564,-5.91509 4.93564,-9.89136 0,-7.11682 -5.17632,-11.81681 -11.79674,-11.81681 -10.95603,0 -29.491872,8.55925 -42.249672,8.55925 -6.979771,0 -9.988293,-4.94232 -9.988293,-11.8168 0,-19.89469 18.417168,-37.01986 36.469967,-37.01986 6.620415,0 15.767998,1.3321 15.767998,-8.9186 0,-10.85074 -11.915423,-14.46764 -20.103617,-14.46764 z"
     style="fill:#e63245;fill-opacity:1;fill-rule:nonzero;stroke:none;stroke-width:1.6714" />
  <path
     id="path9"
     d="m 235.80278,291.60082 c -17.55639,0.33429 -28.85173,11.23015 -28.85173,30.38607 0,13.14893 5.50393,25.69111 17.6734,29.25621 -0.22062,0.15711 -0.42286,0.32593 -0.62677,0.51647 -0.52148,0.60671 -0.55491,1.53936 -0.24737,2.25805 0.21561,0.51647 0.73709,0.84239 1.29199,0.84239 1.25355,0.13706 2.51379,-0.11696 3.68878,-0.54153 1.03293,-0.18385 1.92713,0.52817 2.71604,1.08306 0.56159,0.42454 1.2151,0.73877 1.92712,0.79726 0.8357,0.15712 1.86695,0.19556 2.48704,-0.50977 0.57497,-0.71201 0.35266,-1.71653 0.0451,-2.49373 -0.14876,-0.3861 -0.32592,-0.76383 -0.54822,-1.11649 16.72739,-1.75665 31.536,-16.29616 31.536,-33.59183 0,-16.2761 -13.4832,-26.6438 -29.36819,-26.88616 -0.57998,-0.0113 -1.15494,-0.0113 -1.72322,0 z"
     style="fill:#f1c433;fill-opacity:1;fill-rule:nonzero;stroke:none;stroke-width:1.6714" />
  <path
     id="path10"
     d="m 285.7877,290.63476 c -9.38825,0 -12.39845,21.94382 -12.39845,29.42 0,11.0981 5.53734,24.48269 17.45277,24.48269 8.78655,0 13.6052,-6.39145 19.5019,-12.18285 0,8.32524 1.32542,38.82832 12.1561,38.82832 4.5763,0 6.7441,-3.49323 6.86111,-7.83553 0.4847,-20.13537 2.1678,-40.39442 2.1678,-60.52979 0,-6.14908 -2.28481,-11.94049 -9.02891,-11.94049 -2.76784,0 -5.17799,1.93214 -6.8611,4.34063 -4.21193,5.66772 -8.54755,15.55908 -12.7578,20.98444 -3.12719,3.97627 -13.12385,18.20323 -10.35601,-5.42536 0.36604,-3.61692 0.6084,-7.11684 0.6084,-10.73375 0,-4.94233 -2.28481,-9.40831 -7.34581,-9.40831 z"
     style="fill:#e63245;fill-opacity:1;fill-rule:nonzero;stroke:none;stroke-width:1.6714" />
  <path
     id="path11"
     d="m 206.10867,257.23347 c -7.94584,0 -16.24936,1.44911 -24.18852,1.69147 -10.11365,0.48303 -20.10361,0.35768 -30.21559,0.84239 -1.92712,0.12372 -3.85257,0.36435 -5.77969,0.96606 -3.36788,1.20675 -5.29334,4.09995 -5.29334,7.71686 0,3.13387 1.44243,5.06602 3.85091,6.87447 4.69496,3.25088 24.43087,4.45931 30.93429,4.81865 -1.5661,11.57613 -2.8865,23.6403 -2.8865,35.33509 0,10.12535 1.20173,20.85908 3.12886,30.62675 0.95938,4.69999 4.45261,9.88468 9.50525,9.88468 4.33562,0 8.18819,-3.85927 8.18819,-8.31857 0,-2.53217 -0.84238,-5.06602 -0.84238,-7.47451 0,-20.86075 -0.60171,-41.36216 3.00852,-60.17043 h 5.77804 c 7.4628,0 21.42235,-1.20843 21.42235,-11.69479 0,-8.68294 -9.74762,-11.09812 -16.61039,-11.09812 z"
     style="fill:#e63245;fill-opacity:1;fill-rule:nonzero;stroke:none;stroke-width:1.6714" />
  <text
     id="text11"
     xml:space="preserve"
     transform="scale(0.99912347,1.0008773)"
     x="337.06699"
     y="339.17587"
     style="font-size:20.0744px;stroke-width:1.67286"><tspan
       style="font-variant:normal;font-weight:normal;font-size:66.906px;font-family:'SF Pro Rounded';writing-mode:lr-tb;fill:#e63245;fill-opacity:1;fill-rule:nonzero;stroke:none;stroke-width:1.67286"
       x="337.06699"
       y="339.17587"
       id="tspan11">®</tspan></text>
</svg>
